<svg xmlns="http://www.w3.org/2000/svg" xmlns:xlink="http://www.w3.org/1999/xlink" width="48" height="48" viewBox="0 0 48 48">
  <defs>
    <clipPath id="clip-path">
      <rect id="Rectangle_89" data-name="Rectangle 89" width="48" height="48" transform="translate(314 1009)" stroke="#707070" stroke-width="1"/>
    </clipPath>
  </defs>
  <g id="Mask_Group_6" data-name="Mask Group 6" transform="translate(-314 -1009)" clip-path="url(#clip-path)">
    <g id="medal" transform="translate(317.606 1009)">
      <g id="Group_160" data-name="Group 160">
        <g id="Group_159" data-name="Group 159">
          <path id="Path_86" data-name="Path 86" d="M44.257,39.942,37.242,27.619a1.976,1.976,0,0,0,1.09-1.943l-.521-4.361L40.8,18.186a1.952,1.952,0,0,0,.047-2.607l-2.986-3.223.616-4.408a1.961,1.961,0,0,0-1.517-2.086l-4.313-.853L30.559,1.17a1.865,1.865,0,0,0-2.417-.9h-.047L24.113,2.118,20.226.222a1.847,1.847,0,0,0-2.512.758L15.581,4.82l-4.313.758A1.945,1.945,0,0,0,9.7,7.711l.521,4.361L7.239,15.2a1.952,1.952,0,0,0-.047,2.607l2.986,3.223-.616,4.408a1.952,1.952,0,0,0,1.232,1.991L3.731,39.942a.965.965,0,0,0,0,.948.978.978,0,0,0,.806.474h7.584l3.46,6.02a.978.978,0,0,0,.806.474.917.917,0,0,0,.806-.474L23.97,35.819l6.778,11.707a.978.978,0,0,0,.806.474.917.917,0,0,0,.806-.474l3.46-6.162H43.4a.917.917,0,0,0,.806-.474A.785.785,0,0,0,44.257,39.942ZM16.434,45.014,13.5,39.942a.978.978,0,0,0-.806-.474H6.149L12.69,27.9l2.7.474,2.086,3.839a1.865,1.865,0,0,0,2.417.9h.047l1.943-.9.948,1.659Zm2.749-13.6h-.047L17.05,27.476a1.769,1.769,0,0,0-1.327-.9l-4.361-.806.616-4.361a1.845,1.845,0,0,0-.474-1.564L8.566,16.622l2.986-3.128a1.78,1.78,0,0,0,.521-1.564l-.521-4.313a.147.147,0,0,1,.047-.095l4.313-.758a1.918,1.918,0,0,0,1.327-.948l2.133-3.839,3.887,1.9a1.813,1.813,0,0,0,1.706,0l3.934-1.8h.047L31.033,6a1.772,1.772,0,0,0,1.28.9l4.313.853-.616,4.361a1.845,1.845,0,0,0,.474,1.564l2.986,3.223-3.034,3.128a1.78,1.78,0,0,0-.521,1.564l.521,4.361-4.266.711a1.918,1.918,0,0,0-1.327.948L28.71,31.458l-3.887-1.9a1.813,1.813,0,0,0-1.706,0ZM35.3,39.468a.917.917,0,0,0-.806.474l-2.939,5.214L24.871,33.591a.764.764,0,0,0-.19-.332L23.639,31.41l.332-.142,3.887,1.9a1.95,1.95,0,0,0,2.512-.758L32.5,28.567l2.844-.521L41.84,39.468Z" transform="translate(-3.606 0)"/>
          <path id="Path_87" data-name="Path 87" d="M33.45,16.717a9.48,9.48,0,1,0-9.48,9.48A9.508,9.508,0,0,0,33.45,16.717ZM23.97,24.3a7.584,7.584,0,1,1,7.584-7.584A7.606,7.606,0,0,1,23.97,24.3Z" transform="translate(-3.606)"/>
        </g>
      </g>
    </g>
  </g>
</svg>
