<?xml version="1.0" encoding="utf-8"?>
<!-- Generator: Adobe Illustrator 21.0.0, SVG Export Plug-In . SVG Version: 6.00 Build 0)  -->
<svg version="1.1" id="Layer_1" focusable="false" xmlns="http://www.w3.org/2000/svg" xmlns:xlink="http://www.w3.org/1999/xlink"
	 x="0px" y="0px" viewBox="0 0 512 512" style="enable-background:new 0 0 512 512;" xml:space="preserve">
<style type="text/css">
	.st0{fill:#FFFFFF;}
</style>
<path class="st0" d="M487.4,493.4l24-104c2.6-11.3-3.3-22.9-13.9-27.5l-112-48c-9.8-4.2-21.3-1.4-28,6.9l-49.6,60.6
	c-76.7-36-140.5-98.9-177.2-177.2l60.6-49.6c8.3-6.8,11.1-18.2,6.9-28l-48-112c-4.7-10.7-16.3-16.6-27.6-14l-104,24
	C7.8,27.1,0,36.7,0,48c0,256.1,207.5,464,464,464C475.2,512,484.9,504.3,487.4,493.4z"/>
</svg>
