<?xml version="1.0" encoding="utf-8"?>
<!-- Generator: Adobe Illustrator 21.0.0, SVG Export Plug-In . SVG Version: 6.00 Build 0)  -->
<svg version="1.1" id="Capa_1" xmlns="http://www.w3.org/2000/svg" xmlns:xlink="http://www.w3.org/1999/xlink" x="0px" y="0px"
	 viewBox="0 0 297 297" style="enable-background:new 0 0 297 297;" xml:space="preserve">
<style type="text/css">
	.st0{fill:#11B3DC;}
</style>
<g>
	<path class="st0" d="M148.4,202.7c29.9,0,54.3-24.3,54.3-54.3s-24.3-54.3-54.3-54.3s-54.3,24.3-54.3,54.3S118.5,202.7,148.4,202.7z
		 M148.4,124.9c13,0,23.6,10.6,23.6,23.6s-10.6,23.6-23.6,23.6c-13,0-23.6-10.6-23.6-23.6C124.8,135.5,135.4,124.9,148.4,124.9z"/>
	<path class="st0" d="M296.1,145c-0.5-0.9-11.5-21.1-35.1-41.4c-21.8-18.7-59.1-41.1-112.5-41.1S57.9,84.8,36,103.5
		C12.4,123.8,1.3,144.1,0.9,145c-1.2,2.2-1.2,4.9,0,7.1c0.5,0.9,11.4,21.1,35.1,41.4c21.8,18.7,59.1,41.1,112.5,41.1
		s90.7-22.3,112.5-41.1c23.7-20.3,34.6-40.6,35.1-41.4C297.3,149.8,297.3,147.2,296.1,145z M148.4,79.2c38.2,0,69.3,31.1,69.3,69.3
		s-31.1,69.3-69.3,69.3c-38.2,0-69.3-31.1-69.3-69.3S110.2,79.2,148.4,79.2z"/>
</g>
</svg>
