<?xml version="1.0" encoding="utf-8"?>
<!-- Generator: Adobe Illustrator 21.0.0, SVG Export Plug-In . SVG Version: 6.00 Build 0)  -->
<svg version="1.1" id="Layer_1" xmlns="http://www.w3.org/2000/svg" xmlns:xlink="http://www.w3.org/1999/xlink" x="0px" y="0px"
	 viewBox="0 0 39 39" style="enable-background:new 0 0 39 39;" xml:space="preserve">
<style type="text/css">
	.st0{fill:#212121;}
	.st1{clip-path:url(#SVGID_2_);}
	.st2{fill:#424242;}
	.st3{fill:#29B6F6;}
	.st4{fill:#D1E3EE;}
	.st5{fill:#617584;}
	.st6{fill:#F2B281;}
	.st7{fill:#63A4AF;}
	.st8{fill:#FFFFFF;}
	.st9{fill:#E1A279;}
	.st10{fill:#CBCACA;}
	.st11{fill:#5E7280;}
	.st12{fill:#566978;}
	.st13{fill:#6D7F8D;}
	.st14{fill:#CC795E;}
	.st15{fill:#D6876B;}
	.st16{fill:#9AD0DC;}
</style>
<g>
	<path class="st0" d="M36.9,39H2.3c-1.2,0-2.2-1-2.2-2.2V2.2C0.1,1,1.1,0,2.3,0h34.6c1.2,0,2.2,1,2.2,2.2v34.6
		C39.1,38,38.1,39,36.9,39z"/>
	<g>
		<defs>
			<path id="SVGID_1_" d="M36.3,39H2.9c-1.6,0-2.8-1.3-2.8-2.8V2.8C0.1,1.3,1.4,0,2.9,0h33.3c1.6,0,2.8,1.3,2.8,2.8v33.3
				C39.1,37.7,37.8,39,36.3,39z"/>
		</defs>
		<clipPath id="SVGID_2_">
			<use xlink:href="#SVGID_1_"  style="overflow:visible;"/>
		</clipPath>
		<g class="st1">
			<path class="st0" d="M-2.2,23.6c0-1.1,0-2.3,0-3.4c0.1,0,0.1-0.1,0.1-0.2c0.1-0.6,0.1-1.3,0.3-1.9c1-5.3,3.5-9.8,7.7-13.1
				c6.6-5.2,14.1-6.5,21.9-3.2c8.4,3.5,12.9,10.1,13.6,19.2c0.3,3.5-0.5,7-2,10.2c-1.4,3-3.4,5.5-5.9,7.6c-0.3-1.5-0.5-3-0.8-4.4
				c-0.2-1.1-0.8-1.8-1.7-2.4c-0.8-0.6-1.7-0.9-2.6-1.3c0-5.4,0.1-10.8-0.1-16.2c0-1.3-0.2-2.6-0.6-3.8c-0.8-2.4-2.3-4-4.7-4.7
				c-2-0.5-4.1-0.6-6.1-0.1c-2.5,0.5-4.2,2-5.1,4.4c-0.7,1.8-0.8,3.6-0.8,5.4c0,2.4,0,4.7,0,7.1c0,2.6,0,5.2,0,7.9
				c-0.7,0.3-1.4,0.6-2.1,0.9c-1.2,0.7-2.1,1.6-2.3,3.1c-0.2,1.4-0.4,2.7-0.7,4c0,0-0.1,0-0.1,0C1.5,35.1-1.1,30.5-2,25
				C-2,24.5-2,24-2.2,23.6z"/>
			<path class="st2" d="M10.8,30.6c0-2.6,0-5.2,0-7.9c0-2.4,0-4.7,0-7.1c0-1.8,0.2-3.7,0.8-5.4c0.9-2.4,2.6-3.9,5.1-4.4
				c2.1-0.4,4.1-0.4,6.1,0.1c2.4,0.7,4,2.3,4.7,4.7c0.4,1.2,0.6,2.5,0.6,3.8c0.2,5.4,0,10.8,0.1,16.2c-1-0.3-2.1-0.6-3.1-0.8
				c-0.3-0.2-0.7-0.4-1.1-0.5c-0.4-0.3-0.7-0.7-1.1-0.9c-0.1,0-0.3,0-0.4-0.1c-0.2-0.9,0-1.8,0.2-2.6c0.1-0.1,0.1-0.3,0.3-0.4
				c0.4-0.4,0.8-0.8,1.2-1.2c0.7-1,1.2-2.1,1.6-3.2c0.1-0.2,0.1-0.4,0.4-0.4c0.3,0,0.5-0.2,0.6-0.4c0.5-1.1,0.7-2.3,0.6-3.6
				c0-0.2-0.1-0.4-0.3-0.6c-0.2-0.2-0.4-0.2-0.6,0.1c-0.1,0.2-0.1,0.3-0.2,0.5c0,0.1-0.1,0.1-0.1,0.1c-0.1,0-0.1-0.1-0.1-0.2
				c0-0.2,0-0.4,0-0.6c0-0.7,0-0.6-0.6-0.8c-1.4-0.4-2.7-0.8-3.2-2.4c-0.4,0.9-1.2,1.2-2,1.5c-2.1,0.7-4.2,0.9-6.4,1.1
				c-0.9,0.1-0.7,0-0.7,0.8c0,0.2,0.1,0.5-0.1,0.5c-0.2,0.1-0.2-0.3-0.3-0.4c-0.1-0.1-0.1-0.4-0.3-0.4c-0.2,0-0.4,0.2-0.5,0.4
				c-0.1,0.1-0.1,0.3-0.1,0.4c-0.1,1.2,0.1,2.4,0.6,3.5c0.1,0.2,0.2,0.4,0.5,0.5c0.4,0,0.5,0.3,0.6,0.6c0.5,1.5,1.3,2.8,2.4,4
				c0.2,0.2,0.5,0.4,0.6,0.7c0.1,0.9,0.3,1.7,0.2,2.6c-0.1,0-0.3,0-0.4,0.1c-0.4,0.2-0.8,0.6-1.1,0.9c-0.4,0.1-0.7,0.3-1.1,0.5
				C12.9,30,11.9,30.3,10.8,30.6z"/>
			<path class="st3" d="M10.8,30.6c1-0.3,2.1-0.6,3.1-0.7c0.2,1.1,0.4,2.1,0.6,3.2c0.1,0.4,0.2,0.5,0.6,0.4c0.2-0.1,0.5-0.1,0.7-0.1
				l0,0c-0.2,0.4-0.4,0.6-0.7,0.9c-0.1,0.2-0.2,0.3,0,0.5c1.4,1.3,2.7,2.7,4.1,4.1c0.2,0.2,0.3,0.2,0.5,0c1.3-1.4,2.7-2.7,4.1-4.1
				c0.2-0.2,0.2-0.3,0-0.5c-0.2-0.3-0.5-0.6-0.7-0.9l0,0c0.2,0,0.5,0.1,0.7,0.1c0.4,0.1,0.5,0,0.6-0.4c0.2-1.1,0.4-2.1,0.6-3.1
				c1.1,0.1,2.1,0.5,3.1,0.8c0.9,0.4,1.8,0.7,2.6,1.3c0.9,0.6,1.5,1.3,1.7,2.4c0.3,1.5,0.5,3,0.8,4.4c-1,1-2.2,1.7-3.5,2.4
				c-0.6,0.3-1.2,0.6-1.9,0.9c-0.2-0.6,0-1.2-0.1-1.8c0-0.6,0-0.6-0.5-0.6c-1.9,0-3.8,0-5.6,0c-0.5,0-0.5,0-0.5,0.6
				c0,1.2,0,2.3,0,3.5c-5.7,0.3-10.8-1.2-15.2-4.8c-0.1,0-0.1-0.1-0.1-0.2c0.2-1.3,0.5-2.7,0.7-4c0.2-1.5,1-2.4,2.3-3.1
				C9.4,31.2,10.1,30.9,10.8,30.6z"/>
			<path class="st4" d="M21.2,43.6c0-1.2,0-2.3,0-3.5c2.2,0,4.5,0,6.7,0c0.1,0.6-0.1,1.2,0.1,1.8c-0.8,0.4-1.6,0.7-2.5,0.8
				c-0.3,0-0.6,0-0.9,0c-0.2,0-0.3,0.1-0.1,0.3C23.4,43.4,22.3,43.5,21.2,43.6z M21.7,41.8c0,0.3,0,0.6,0,1c0,0.2,0.1,0.4,0.3,0.4
				c0.5,0,0.9,0,1.4,0c0.2,0,0.3-0.1,0.3-0.3c0-0.7,0-1.3,0-2c0-0.2-0.1-0.3-0.3-0.3c-0.5,0-1,0-1.5,0c-0.2,0-0.3,0.1-0.3,0.3
				C21.7,41.2,21.7,41.5,21.7,41.8z M25.9,40.7c-0.4,0-0.8,0-1.2,0c-0.1,0-0.3,0-0.3,0.2c0,0.1,0.2,0.1,0.3,0.1c0.8,0,1.6,0,2.4,0
				c0.1,0,0.3,0,0.3-0.1c0-0.2-0.2-0.2-0.3-0.2C26.7,40.7,26.3,40.7,25.9,40.7z M25.9,42c0.4,0,0.8,0,1.2,0c0.1,0,0.2,0,0.2-0.1
				c0-0.1-0.1-0.1-0.2-0.1c-0.8,0-1.6,0-2.5,0c-0.1,0-0.2,0-0.2,0.1c0,0.1,0.1,0.1,0.2,0.1C25.1,42,25.5,42,25.9,42z"/>
			<path class="st5" d="M24.5,43.1c-0.2-0.2-0.1-0.3,0.1-0.3c0.3,0,0.6,0,0.9,0C25.2,42.9,24.8,43,24.5,43.1z"/>
			<path class="st6" d="M16.4,25.7c-0.1-0.3-0.4-0.4-0.6-0.7c-1.1-1.1-1.9-2.5-2.4-4c-0.1-0.3-0.2-0.6-0.6-0.6
				c-0.2,0-0.4-0.2-0.5-0.5c-0.5-1.1-0.7-2.3-0.6-3.5c0-0.1,0.1-0.3,0.1-0.4c0.1-0.2,0.3-0.4,0.5-0.4c0.2,0,0.2,0.3,0.3,0.4
				c0.1,0.1,0,0.5,0.3,0.4c0.2-0.1,0.1-0.3,0.1-0.5c0-0.8-0.2-0.7,0.7-0.8c2.2-0.2,4.3-0.4,6.4-1.1c0.8-0.3,1.6-0.6,2-1.5
				c0.5,1.6,1.8,2,3.2,2.4c0.6,0.2,0.6,0.1,0.6,0.8c0,0.2,0,0.4,0,0.6c0,0.1,0,0.1,0.1,0.2c0.1,0,0.1-0.1,0.1-0.1
				c0.1-0.2,0.1-0.3,0.2-0.5c0.1-0.4,0.3-0.3,0.6-0.1c0.2,0.1,0.3,0.4,0.3,0.6c0.1,1.2-0.1,2.4-0.6,3.6c-0.1,0.2-0.3,0.4-0.6,0.4
				c-0.3,0-0.3,0.2-0.4,0.4c-0.4,1.1-0.9,2.2-1.6,3.2c-0.3,0.4-0.7,0.9-1.2,1.2c-0.1,0.1-0.2,0.2-0.3,0.4c-0.4,0.1-0.7,0.4-1.1,0.6
				c-1,0.5-1.9,0.8-3,0.5c-0.6-0.2-1.2-0.5-1.8-0.9C16.7,25.8,16.6,25.7,16.4,25.7z M17.4,23.2c-0.1,0.1-0.1,0.2,0,0.2
				c1.7,1.3,2.6,1.3,4.2,0c0.2-0.1,0.1-0.2-0.1-0.3c-0.5-0.3-0.9-0.5-1.5-0.4c-0.4,0.1-0.7,0.1-1,0C18.5,22.7,17.9,22.8,17.4,23.2z"
				/>
			<path class="st7" d="M25.2,29.8c-0.2,1-0.4,2.1-0.6,3.1c-0.1,0.4-0.2,0.5-0.6,0.4c-0.2-0.1-0.5-0.1-0.7-0.1l0,0l0,0
				c0.2,0.4,0.4,0.6,0.7,0.9c0.1,0.2,0.2,0.3,0,0.5c-1.4,1.3-2.7,2.7-4.1,4.1c-0.2,0.2-0.3,0.2-0.5,0c-1.3-1.4-2.7-2.7-4.1-4.1
				c-0.2-0.2-0.2-0.3,0-0.5c0.2-0.3,0.5-0.6,0.7-0.9l0,0l0,0c-0.2,0-0.5,0.1-0.7,0.1c-0.4,0.1-0.5,0-0.6-0.4
				c-0.2-1.1-0.4-2.1-0.6-3.2c0.3-0.2,0.7-0.4,1.1-0.5c0.1,0.1,0.2,0.2,0.3,0.3c0.8,1.1,1.5,2.3,2.1,3.6c0.6,1.3,1.3,2.7,2,4
				c0.1,0.1,0.1,0.3,0.3,0.4c0.1-0.2,0.2-0.3,0.2-0.4c0.9-1.7,1.7-3.5,2.6-5.2c0.5-0.9,1-1.7,1.7-2.5C24.5,29.4,24.9,29.6,25.2,29.8
				z"/>
			<path class="st8" d="M24.1,29.3c-0.6,0.8-1.2,1.6-1.7,2.5c-0.9,1.7-1.7,3.5-2.6,5.2c-0.1,0.1-0.2,0.3-0.2,0.4
				c-0.2-0.1-0.2-0.2-0.3-0.4c-0.7-1.3-1.3-2.6-2-4c-0.6-1.3-1.3-2.4-2.1-3.6c-0.1-0.1-0.1-0.2-0.3-0.3c0.4-0.3,0.7-0.7,1.1-0.9
				c0.1,0.2,0.2,0.3,0.3,0.4c0.9,1.1,1.9,2,2.9,3.1c0.2,0.2,0.3,0.1,0.4-0.1c0.4-0.4,0.9-0.9,1.3-1.3c0.5-0.6,1.1-1.1,1.5-1.7
				c0.1-0.1,0.3-0.2,0.3-0.4C23.4,28.6,23.8,29,24.1,29.3z"/>
			<path class="st9" d="M22.6,28.7c-0.5,0.6-1,1.1-1.5,1.7c-0.4,0.5-0.9,0.9-1.3,1.3c-0.1,0.1-0.2,0.3-0.4,0.1c-0.9-1-2-2-2.9-3.1
				c0.1-0.1,0.1-0.3,0.1-0.4c0.2-0.9,0-1.8-0.2-2.6c0.2,0,0.3,0.1,0.4,0.2c0.5,0.4,1.1,0.7,1.8,0.9c1.1,0.4,2.1,0,3-0.5
				c0.4-0.2,0.7-0.5,1.1-0.6c-0.1,0.9-0.3,1.7-0.2,2.6C22.5,28.5,22.6,28.6,22.6,28.7z"/>
			<path class="st10" d="M16.6,28.3c0,0.2,0,0.3-0.1,0.4c-0.1-0.1-0.3-0.2-0.3-0.4C16.3,28.4,16.5,28.3,16.6,28.3z"/>
			<path class="st10" d="M22.6,28.7c-0.1-0.1-0.1-0.3-0.1-0.4c0.1,0,0.3,0,0.4,0.1C22.9,28.5,22.8,28.6,22.6,28.7z"/>
			<path class="st11" d="M27.9,40.1c-2.2,0-4.5,0-6.7,0c0-0.6,0-0.6,0.5-0.6c1.9,0,3.8,0,5.6,0C27.9,39.5,27.9,39.6,27.9,40.1z"/>
			<path class="st12" d="M21.7,41.8c0-0.3,0-0.6,0-1c0-0.2,0.1-0.3,0.3-0.3c0.5,0,1,0,1.5,0c0.2,0,0.3,0.1,0.3,0.3c0,0.7,0,1.3,0,2
				c0,0.2-0.1,0.3-0.3,0.3c-0.5,0-0.9,0-1.4,0c-0.3,0-0.3-0.1-0.3-0.4C21.7,42.5,21.7,42.2,21.7,41.8z"/>
			<path class="st13" d="M25.9,40.7c0.4,0,0.8,0,1.1,0c0.1,0,0.3,0,0.3,0.2c0,0.1-0.2,0.1-0.3,0.1c-0.8,0-1.6,0-2.4,0
				c-0.1,0-0.3,0-0.3-0.1c0-0.2,0.2-0.2,0.3-0.2C25.1,40.7,25.5,40.7,25.9,40.7z"/>
			<path class="st12" d="M25.9,42c-0.4,0-0.8,0-1.2,0c-0.1,0-0.2,0-0.2-0.1c0-0.1,0.1-0.1,0.2-0.1c0.8,0,1.6,0,2.5,0
				c0.1,0,0.2,0,0.2,0.1c0,0.1-0.1,0.1-0.2,0.1C26.7,42,26.3,42,25.9,42z"/>
			<path class="st14" d="M21.6,23.1c0.2,0,0.2,0.1,0.1,0.3c-1.6,1.3-2.6,1.3-4.2,0c-0.1-0.1-0.2-0.1,0-0.2c0.2,0.1,0.3,0.1,0.5,0.1
				c0.4,0,0.8,0,1.3,0c0.7,0,1.5,0,2.2,0C21.5,23.3,21.6,23.2,21.6,23.1z"/>
			<path class="st15" d="M21.6,23.1c0,0.1-0.1,0.1-0.2,0.1c-0.7,0-1.5,0.1-2.2,0c-0.4,0-0.8,0-1.3,0c-0.2,0-0.4,0-0.5-0.1
				c0.5-0.3,1-0.5,1.6-0.4c0.4,0.1,0.7,0.1,1,0C20.7,22.6,21.1,22.9,21.6,23.1z"/>
			<polygon class="st16" points="15.9,33.2 15.9,33.2 15.9,33.3 			"/>
			<polygon class="st16" points="23.2,33.3 23.2,33.2 23.2,33.2 			"/>
		</g>
	</g>
</g>
</svg>
