<?xml version="1.0" encoding="utf-8"?>
<!-- Generator: Adobe Illustrator 21.0.0, SVG Export Plug-In . SVG Version: 6.00 Build 0)  -->
<svg version="1.1" id="Layer_1" xmlns="http://www.w3.org/2000/svg" xmlns:xlink="http://www.w3.org/1999/xlink" x="0px" y="0px"
	 viewBox="0 0 39 39" style="enable-background:new 0 0 39 39;" xml:space="preserve">
<style type="text/css">
	.st0{fill:none;stroke:#003DA6;stroke-miterlimit:10;}
	.st1{fill:#003DA6;stroke:#003DA6;stroke-width:0.25;stroke-miterlimit:10;}
</style>
<g>
	<circle class="st0" cx="19.3" cy="19.5" r="16"/>
	<g>
		<path class="st1" d="M26,13h-1.8v-0.8c0-0.1-0.1-0.3-0.3-0.3h-1.8c-0.1,0-0.3,0.1-0.3,0.3V13h-5.5v-0.8c0-0.1-0.1-0.3-0.3-0.3
			h-1.8c-0.1,0-0.3,0.1-0.3,0.3V13h-1.8c-0.1,0-0.3,0.1-0.3,0.3V16v10.8c0,0.1,0.1,0.3,0.3,0.3H26c0.1,0,0.3-0.1,0.3-0.3V16v-2.8
			C26.3,13.1,26.1,13,26,13z M22.5,12.5h1.3v0.8V14h-1.3v-0.8V12.5z M14.8,12.5H16v0.8V14h-1.3v-0.8V12.5z M12.8,13.5h1.5v0.8
			c0,0.1,0.1,0.3,0.3,0.3h1.8c0.1,0,0.3-0.1,0.3-0.3v-0.8H22v0.8c0,0.1,0.1,0.3,0.3,0.3H24c0.1,0,0.3-0.1,0.3-0.3v-0.8h1.5v2.3h-13
			V13.5z M12.8,26.5V16.3h13v10.3H12.8z"/>
		<path class="st1" d="M21.3,17.8h-1.8H19h-1.8h-0.5h-2.3V20v0.5v1.8v0.5V25h2.3h0.5H19h0.5h1.8h0.5H24v-2.3v-0.5v-1.8V20v-2.3h-2.3
			H21.3z M19.5,18.3h1.8V20h-1.8V18.3z M21.3,22.3h-1.8v-1.8h1.8V22.3z M17.3,20.5H19v1.8h-1.8V20.5z M17.3,18.3H19V20h-1.8V18.3z
			 M15,18.3h1.8V20H15V18.3z M15,20.5h1.8v1.8H15V20.5z M16.8,24.5H15v-1.8h1.8V24.5z M19,24.5h-1.8v-1.8H19V24.5z M21.3,24.5h-1.8
			v-1.8h1.8V24.5z M23.5,24.5h-1.8v-1.8h1.8V24.5z M23.5,22.3h-1.8v-1.8h1.8V22.3z M23.5,18.3V20h-1.8v-1.8H23.5z"/>
	</g>
</g>
</svg>
