<?xml version="1.0" encoding="utf-8"?>
<!-- Generator: Adobe Illustrator 21.0.0, SVG Export Plug-In . SVG Version: 6.00 Build 0)  -->
<svg version="1.1" id="Layer_1" xmlns="http://www.w3.org/2000/svg" xmlns:xlink="http://www.w3.org/1999/xlink" x="0px" y="0px"
	 viewBox="0 0 39 39" style="enable-background:new 0 0 39 39;" xml:space="preserve">
<style type="text/css">
	.st0{fill:none;stroke:#003DA6;stroke-miterlimit:10;}
	.st1{fill:#003DA6;stroke:#003DA6;stroke-width:0.5;stroke-miterlimit:10;}
</style>
<circle class="st0" cx="19.5" cy="19.5" r="16"/>
<path class="st1" d="M28.9,14c-0.1-0.1-2.1-1.2-4.6-1.2c-2.2,0-4,0.9-4.5,1.2c-0.5-0.3-2.3-1.2-4.5-1.2c-2.5,0-4.6,1.2-4.6,1.2
	c-0.1,0.1-0.1,0.1-0.1,0.2v11.1c0,0.1,0.1,0.2,0.1,0.3c0,0,0.1,0,0.1,0c0.1,0,0.1,0,0.1,0c0,0,2-1.2,4.3-1.2c2.4,0,4.3,1.2,4.3,1.2
	c0,0,0,0,0,0c0,0,0,0,0.1,0c0,0,0,0,0,0c0,0,0,0,0.1,0c0,0,0,0,0.1,0c0,0,0,0,0,0c0,0,0,0,0.1,0c0,0,0,0,0,0c0,0,2-1.2,4.3-1.2
	c2.4,0,4.3,1.2,4.3,1.2c0.1,0.1,0.2,0.1,0.3,0c0.1-0.1,0.1-0.1,0.1-0.3V14.2C29,14.1,28.9,14.1,28.9,14z M16,13.4v5.8l-0.6-0.5
	c-0.1-0.1-0.3-0.1-0.4,0l-0.6,0.5v-5.8c0.3,0,0.5,0,0.8,0C15.5,13.3,15.7,13.3,16,13.4z M11,24.9V14.4c0.4-0.2,1.5-0.7,2.9-1v6.4
	c0,0.1,0.1,0.2,0.2,0.3c0.1,0,0.2,0,0.3,0l0.9-0.7l0.9,0.7c0.1,0,0.1,0.1,0.2,0.1c0,0,0.1,0,0.1,0c0.1,0,0.2-0.1,0.2-0.3v-6.4
	c1.4,0.2,2.5,0.8,2.9,1v10.5c-0.7-0.4-2.3-1-4.2-1C13.4,23.9,11.8,24.6,11,24.9z M28.4,24.9c-0.7-0.4-2.3-1-4.2-1
	c-1.9,0-3.5,0.7-4.2,1V14.4c0.5-0.3,2.2-1.1,4.2-1.1c2,0,3.7,0.8,4.2,1.1V24.9z"/>
</svg>
