<?xml version="1.0" encoding="utf-8"?>
<!-- Generator: Adobe Illustrator 21.0.0, SVG Export Plug-In . SVG Version: 6.00 Build 0)  -->
<svg version="1.1" id="Layer_1" xmlns="http://www.w3.org/2000/svg" xmlns:xlink="http://www.w3.org/1999/xlink" x="0px" y="0px"
	 viewBox="0 0 39 39" style="enable-background:new 0 0 39 39;" xml:space="preserve">
<style type="text/css">
	.st0{fill:none;stroke:#003DA6;stroke-miterlimit:10;}
	.st1{fill:#003DA6;}
</style>
<circle class="st0" cx="19.5" cy="20.5" r="16"/>
<g>
	<path class="st1" d="M27,23.7c-0.1-1.1-0.9-1.9-2-1.9c-0.7,0-1.2,0.4-1.6,0.9c-0.3-0.5-0.9-0.9-1.6-0.9c-1,0-1.9,0.8-2,1.9
		c0,0.1,0,0.3,0.1,0.7c0.1,0.6,0.5,1.1,1,1.6l2.3,1.9c0.1,0.1,0.1,0.1,0.2,0.1c0.1,0,0.1,0,0.2-0.1l2.3-1.9c0.5-0.4,0.8-1,1-1.6
		C27,24,27,23.7,27,23.7z M26.4,24.3c-0.1,0.5-0.4,0.9-0.8,1.3l-2.1,1.8l-2.1-1.8c-0.4-0.4-0.7-0.8-0.8-1.3
		c-0.1-0.3-0.1-0.5-0.1-0.5l0,0c0.1-0.7,0.6-1.4,1.4-1.4c0.6,0,1.1,0.5,1.3,1l0.2,0.6l0.2-0.6c0.2-0.5,0.7-1,1.3-1
		c0.9,0,1.4,0.7,1.4,1.5C26.4,23.8,26.5,23.9,26.4,24.3z"/>
	<path class="st1" d="M21.8,21.2h2.5v-3h-2.5h-0.5h-1.9h-0.5h-1.9h-0.5h-2.5v2.5v0.5v1.9v0.5v2.5h2.5h0.5h2.5v-2.5v-0.5v-1.9h1.9
		H21.8z M21.8,18.7h1.9v1.9h-1.9V18.7z M16.9,18.7h1.9v1.9h-1.9V18.7z M14.5,18.7h1.9v1.9h-1.9V18.7z M14.5,21.2h1.9v1.9h-1.9V21.2z
		 M16.4,25.5h-1.9v-1.9h1.9V25.5z M18.8,25.5h-1.9v-1.9h1.9V25.5z M18.8,23.1h-1.9v-1.9h1.9V23.1z M19.4,20.6v-1.9h1.9v1.9H19.4z"/>
	<path class="st1" d="M19.1,27.5h-6.5V16.8h13.1v3.5c0,0.2,0.1,0.3,0.3,0.3s0.3-0.1,0.3-0.3v-3.8v-2.7c0-0.2-0.1-0.3-0.3-0.3h-1.4
		v-0.8c0-0.2-0.1-0.3-0.3-0.3h-1.9c-0.2,0-0.3,0.1-0.3,0.3v0.8h-6v-0.8c0-0.2-0.1-0.3-0.3-0.3h-1.9c-0.2,0-0.3,0.1-0.3,0.3v0.8h-1.4
		c-0.2,0-0.3,0.1-0.3,0.3v2.7v11.2c0,0.2,0.1,0.3,0.3,0.3h6.8c0.2,0,0.3-0.1,0.3-0.3S19.2,27.5,19.1,27.5z M22.6,13H24v0.8v0.8h-1.4
		v-0.8V13z M14.2,13h1.4v0.8v0.8h-1.4v-0.8V13z M12.5,14.1h1.1v0.8c0,0.2,0.1,0.3,0.3,0.3h1.9c0.2,0,0.3-0.1,0.3-0.3v-0.8h6v0.8
		c0,0.2,0.1,0.3,0.3,0.3h1.9c0.2,0,0.3-0.1,0.3-0.3v-0.8h1.1v2.2H12.5L12.5,14.1z"/>
</g>
</svg>
