<?xml version="1.0" encoding="utf-8"?>
<!-- Generator: Adobe Illustrator 21.0.0, SVG Export Plug-In . SVG Version: 6.00 Build 0)  -->
<svg version="1.1" id="Layer_1" xmlns="http://www.w3.org/2000/svg" xmlns:xlink="http://www.w3.org/1999/xlink" x="0px" y="0px"
	 viewBox="0 0 39 39" style="enable-background:new 0 0 39 39;" xml:space="preserve">
<style type="text/css">
	.st0{fill:none;stroke:#003DA6;stroke-miterlimit:10;}
	.st1{fill:#003DA6;}
</style>
<circle class="st0" cx="19.5" cy="19.5" r="16"/>
<g>
	<path class="st1" d="M14.4,28h9.3c0.2,0,0.4-0.2,0.4-0.4v-4.8l0.9,0.5c0.1,0,0.1,0,0.2,0c0.1,0,0.2,0,0.2-0.1
		c0.1-0.1,0.2-0.2,0.2-0.4l-0.2-1.4l1.1-1c0.1-0.1,0.1-0.3,0.1-0.4c0-0.1-0.2-0.2-0.3-0.3l-1.5-0.2l-0.6-1.2v-3.1v-2.7
		c0-0.2-0.2-0.4-0.4-0.4h-9.3c-0.9,0-1.7,0.8-1.7,1.7v0.1v12.4C12.7,27.2,13.5,28,14.4,28z M14.4,27.2c-0.5,0-0.9-0.4-0.9-0.9v-11
		c0.3,0.2,0.6,0.3,0.9,0.3h8.9v2.8l-0.6,1.2l-1.5,0.2c-0.1,0-0.3,0.1-0.3,0.3c0,0.1,0,0.3,0.1,0.4l1.1,1l-0.2,1.4
		c0,0.1,0,0.3,0.2,0.4c0.1,0.1,0.3,0.1,0.4,0l0.9-0.5v4.4H14.4z M24.4,20.3l0.9,0.1l-0.6,0.6c-0.1,0.1-0.1,0.2-0.1,0.3l0.2,0.9
		l-0.8-0.4c-0.1,0-0.1,0-0.2,0c-0.1,0-0.1,0-0.2,0l-0.8,0.4l0.2-0.9c0-0.1,0-0.2-0.1-0.3l-0.6-0.6l0.9-0.1c0.1,0,0.2-0.1,0.3-0.2
		l0.4-0.8l0.4,0.8C24.2,20.2,24.3,20.3,24.4,20.3z M14.4,12.9h8.9v2h-8.9c-0.5,0-0.9-0.4-0.9-0.9v-0.1
		C13.5,13.3,13.9,12.9,14.4,12.9z"/>
	<path class="st1" d="M21.5,18.2c0-0.2-0.2-0.4-0.4-0.4h-5.3c-0.2,0-0.4,0.2-0.4,0.4c0,0.2,0.2,0.4,0.4,0.4h5.3
		C21.3,18.6,21.5,18.4,21.5,18.2z"/>
	<path class="st1" d="M20.2,19.3h-3.7c-0.2,0-0.4,0.2-0.4,0.4c0,0.2,0.2,0.4,0.4,0.4h3.7c0.2,0,0.4-0.2,0.4-0.4
		C20.6,19.5,20.5,19.3,20.2,19.3z"/>
	<path class="st1" d="M14.6,14.2h7.7c0.2,0,0.4-0.2,0.4-0.4c0-0.2-0.2-0.4-0.4-0.4h-7.7c-0.2,0-0.4,0.2-0.4,0.4
		C14.2,14.1,14.4,14.2,14.6,14.2z"/>
</g>
</svg>
