<?xml version="1.0" encoding="utf-8"?>
<!-- Generator: Adobe Illustrator 21.0.0, SVG Export Plug-In . SVG Version: 6.00 Build 0)  -->
<svg version="1.1" id="Layer_1" xmlns="http://www.w3.org/2000/svg" xmlns:xlink="http://www.w3.org/1999/xlink" x="0px" y="0px"
	 viewBox="0 0 39 39" style="enable-background:new 0 0 39 39;" xml:space="preserve">
<style type="text/css">
	.st0{fill:none;stroke:#003DA6;stroke-miterlimit:10;}
	.st1{fill:#003DA6;}
</style>
<circle class="st0" cx="19.5" cy="19.5" r="16"/>
<g>
	<g>
		<g>
			<path class="st1" d="M27,16.7l-5.3-5.3c-0.3-0.3-0.7-0.4-1.1-0.4c-0.4,0-0.8,0.2-1.1,0.4l-8.3,8.3c-0.3,0.3-0.4,0.7-0.4,1.1
				s0.2,0.8,0.4,1.1l0.6,0.6l0,0c0,0,0,0,0,0l4.4,4.4h-0.6c-0.2,0-0.3,0.2-0.3,0.3c0,0.2,0.2,0.3,0.3,0.3h1.9l0,0c0,0,0,0,0,0l5,0
				c0.2,0,0.3-0.2,0.3-0.3c0-0.2-0.2-0.3-0.3-0.3l-3.7,0l8.1-8.1C27.6,18.2,27.6,17.3,27,16.7z M26.5,18.3l-8.3,8.3
				c-0.2,0.2-0.4,0.2-0.6,0.2h0c-0.2,0-0.4-0.1-0.6-0.2l-4.4-4.4l8-8c0.1-0.1,0.1-0.4,0-0.5c-0.1-0.1-0.4-0.1-0.5,0l-8,8l-0.4-0.4
				c-0.2-0.2-0.2-0.4-0.2-0.6c0-0.2,0.1-0.4,0.2-0.6l8.3-8.3c0.2-0.2,0.4-0.2,0.6-0.2s0.4,0.1,0.6,0.2l1.9,1.9l-8,8
				c-0.1,0.1-0.1,0.4,0,0.5c0.1,0.1,0.2,0.1,0.2,0.1s0.2,0,0.2-0.1l8-8l2.9,2.9C26.8,17.5,26.8,18,26.5,18.3z"/>
			<path class="st1" d="M19.4,21c-0.1-0.1-0.4-0.1-0.5,0l-2.7,2.7c-0.1,0.1-0.1,0.4,0,0.5c0.1,0.1,0.2,0.1,0.2,0.1s0.2,0,0.2-0.1
				l2.7-2.7C19.5,21.3,19.5,21.1,19.4,21z"/>
			<path class="st1" d="M18.3,23.6l-1.1,1.1c-0.1,0.1-0.1,0.4,0,0.5c0.1,0.1,0.2,0.1,0.2,0.1c0.1,0,0.2,0,0.2-0.1l1.1-1.1
				c0.1-0.1,0.1-0.4,0-0.5C18.6,23.4,18.4,23.4,18.3,23.6z"/>
			<path class="st1" d="M19.3,22.5l-0.1,0.1c-0.1,0.1-0.1,0.4,0,0.5c0.1,0.1,0.2,0.1,0.2,0.1s0.2,0,0.2-0.1l0.1-0.1
				c0.1-0.1,0.1-0.4,0-0.5C19.6,22.4,19.4,22.4,19.3,22.5z"/>
			<path class="st1" d="M24.1,16.3c-0.1-0.1-0.2-0.1-0.2-0.1c-0.1,0-0.2,0-0.2,0.1l-1.5,1.5C22,17.8,22,17.9,22,18s0,0.2,0.1,0.2
				l1,1c0.1,0.1,0.2,0.1,0.2,0.1c0.1,0,0.2,0,0.2-0.1l1.5-1.5c0.1-0.1,0.1-0.4,0-0.5L24.1,16.3z M23.3,18.5L22.8,18l1-1l0.5,0.5
				L23.3,18.5z"/>
			<path class="st1" d="M21.2,13.6c0.1,0,0.2,0,0.2-0.1l0.1-0.1c0.1-0.1,0.1-0.4,0-0.5c-0.1-0.1-0.4-0.1-0.5,0L21,13
				c-0.1,0.1-0.1,0.4,0,0.5C21.1,13.6,21.2,13.6,21.2,13.6z"/>
			<path class="st1" d="M14.3,22.6l-0.1,0.1c-0.1,0.1-0.1,0.4,0,0.5c0.1,0.1,0.2,0.1,0.2,0.1s0.2,0,0.2-0.1l0.1-0.1
				c0.1-0.1,0.1-0.4,0-0.5C14.7,22.5,14.5,22.5,14.3,22.6z"/>
		</g>
	</g>
</g>
</svg>
