<?xml version="1.0" encoding="utf-8"?>
<!-- Generator: Adobe Illustrator 21.0.0, SVG Export Plug-In . SVG Version: 6.00 Build 0)  -->
<svg version="1.1" id="Layer_1" xmlns="http://www.w3.org/2000/svg" xmlns:xlink="http://www.w3.org/1999/xlink" x="0px" y="0px"
	 viewBox="0 0 39 39" style="enable-background:new 0 0 39 39;" xml:space="preserve">
<style type="text/css">
	.st0{fill:none;stroke:#003DA6;stroke-miterlimit:10;}
	.st1{fill:#003DA6;}
</style>
<circle class="st0" cx="19.3" cy="20" r="16"/>
<path class="st1" d="M13.1,28C13.1,28,13.1,28,13.1,28l12.4-0.1c0.1,0,0.2,0,0.2-0.1c0.1-0.1,0.1-0.1,0.1-0.2l-0.6-3.4
	c-0.1-1.3-1-2.3-2.2-2.7c-0.4-0.1-0.7-0.2-1.1-0.3l-0.6-0.5l0-0.7c1.1-1,1.9-2.7,2.1-4.4c0,0,0,0,0,0c0-0.2,0-0.4,0-0.6
	c0-0.2,0-0.3,0-0.5c0,0,0,0,0,0c0,0,0,0,0-0.1c-0.2-2.2-1.8-3.6-4.2-3.6c-2.5,0-4.2,1.6-4.2,4.1c0,0,0,0,0,0l0,0c0,0.2,0,0.4,0,0.5
	c0,0,0,0,0,0c0.2,1.7,1,3.4,2.1,4.4l0,0.7l-0.6,0.5c-0.4,0.1-0.7,0.2-1.1,0.3c-1.2,0.4-2,1.4-2.2,2.7l-0.5,3.4c0,0.1,0,0.2,0.1,0.2
	C12.9,28,13,28,13.1,28z M19.2,23.2l0.2,0.2l-0.2,0.1l-0.2-0.1L19.2,23.2z M19.6,22.8l1.4-1.5l0.4,0.4l-1,2.1L19.6,22.8z M21.5,16.9
	l-1.6,0c0,0,0,0,0,0c-0.1,0-0.1,0-0.1-0.1l0-0.3c0,0,0,0,0,0l0,0l0-0.4c0,0,0-0.1,0-0.1c0,0,0,0,0.1,0l1.6,0h0c0,0,0.1,0,0.1,0
	c0,0,0,0,0,0.1l0,0.7C21.6,16.9,21.5,16.9,21.5,16.9z M22.1,16c0-0.1-0.1-0.2-0.2-0.3c-0.1-0.1-0.3-0.2-0.5-0.2c0,0,0,0,0,0l-1.6,0
	c-0.2,0-0.3,0.1-0.5,0.2c-0.1,0.1-0.2,0.3-0.2,0.5l0,0.1l0,0l0-0.1c0-0.2-0.1-0.3-0.2-0.5c-0.1-0.1-0.3-0.2-0.5-0.2c0,0,0,0,0,0
	l-1.6,0c-0.2,0-0.3,0.1-0.5,0.2c-0.1,0.1-0.1,0.2-0.2,0.3l-0.8-0.5c0-0.1,0-0.2,0-0.3c0.4-0.3,2-1.2,3.2-0.7c1.6,0.6,2,0.8,2,0.8
	c0.1,0.1,0.3,0,0.3-0.1c0.1-0.1,0.1-0.3,0-0.4c-0.2-0.1-0.4-0.4-0.4-0.5c0,0,0,0,0,0c0.1-0.1,0.7,0.1,1.1,0.2
	c0.4,0.1,0.7,0.2,1.1,0.3c0,0.1,0,0.1,0,0.2c0,0.1,0,0.3,0,0.4L22.1,16z M18.7,16.9c0,0.1,0,0.1-0.1,0.1L17,17h0c0,0-0.1,0-0.1,0
	c0,0,0,0,0-0.1l0-0.4v0l0-0.4c0,0,0-0.1,0-0.1c0,0,0,0,0.1,0l1.6,0h0c0.1,0,0.1,0,0.1,0.1l0,0.4v0v0L18.7,16.9z M19.2,11.5
	C19.2,11.5,19.2,11.5,19.2,11.5c1.6,0,3.3,0.7,3.6,2.8c-0.3-0.1-0.6-0.1-0.8-0.2c-0.7-0.2-1.3-0.4-1.6-0.1c-0.1,0.1-0.2,0.3-0.1,0.4
	c0,0,0,0.1,0,0.1c-0.3-0.1-0.7-0.3-1.2-0.5c-1.3-0.5-2.7,0.2-3.4,0.6C15.8,12.4,17.6,11.5,19.2,11.5z M15.7,16.2l0.7,0.4l0,0.2
	c0,0.2,0.1,0.3,0.2,0.5c0.1,0.1,0.3,0.2,0.5,0.2c0,0,0,0,0,0l1.6,0c0.4,0,0.6-0.3,0.6-0.6l0-0.1l0,0l0,0.1c0,0.2,0.1,0.3,0.2,0.5
	c0.1,0.1,0.3,0.2,0.5,0.2c0,0,0,0,0,0l1.6,0c0.4,0,0.6-0.3,0.6-0.6l0-0.2l0.7-0.4c-0.4,2.1-1.8,4.2-3.5,4.2c0,0,0,0,0,0
	C17.5,20.4,16.1,18.3,15.7,16.2z M19.2,20.9C19.2,20.9,19.2,20.9,19.2,20.9c0.6,0,1.1-0.2,1.5-0.5l0,0.3l-1.5,1.6l-1.5-1.6l0-0.3
	C18.2,20.8,18.7,20.9,19.2,20.9z M17.4,21.3l1.5,1.5l-0.9,1l-1-2.1L17.4,21.3z M13.9,24.4c0.1-1.1,0.8-1.9,1.8-2.2
	c0.3-0.1,0.6-0.2,0.9-0.2l1.2,2.5c0,0.1,0.1,0.1,0.2,0.2c0,0,0,0,0,0c0.1,0,0.2,0,0.2-0.1l0.6-0.7l0.4,0.3c0,0,0.1,0.1,0.2,0.1
	c0.1,0,0.1,0,0.2-0.1l0.4-0.3l0.6,0.7c0.1,0.1,0.1,0.1,0.2,0.1c0,0,0,0,0,0c0.1,0,0.2-0.1,0.2-0.2l1.2-2.5c0.3,0.1,0.6,0.1,0.9,0.2
	c1,0.3,1.7,1.2,1.8,2.2l0.5,3.1l-11.8,0.1L13.9,24.4z"/>
</svg>
