<?xml version="1.0" encoding="utf-8"?>
<!-- Generator: Adobe Illustrator 21.0.0, SVG Export Plug-In . SVG Version: 6.00 Build 0)  -->
<svg version="1.1" id="Layer_1" xmlns="http://www.w3.org/2000/svg" xmlns:xlink="http://www.w3.org/1999/xlink" x="0px" y="0px"
	 viewBox="0 0 39 39" style="enable-background:new 0 0 39 39;" xml:space="preserve">
<style type="text/css">
	.st0{fill:#FFFFFF;stroke:#003DA6;stroke-miterlimit:10;}
	.st1{fill:#003DA6;}
</style>
<circle class="st0" cx="19.3" cy="19.5" r="16"/>
<path class="st1" d="M15.6,22.5c-0.7,0.4-1.2,1.2-1.3,2l-0.4,2.8c0,0.1,0,0.1,0.1,0.2c0,0.1,0.1,0.1,0.2,0.1c0,0,0,0,0,0l10.4,0
	c0.1,0,0.1,0,0.2-0.1c0-0.1,0.1-0.1,0.1-0.2l-0.5-2.8c-0.1-0.9-0.6-1.6-1.3-2c0.6-0.2,1.2-0.8,1.7-2.2c0.9-2.4-0.7-3.9-1.1-4.3
	c-0.1-2.3-2-4.2-4.3-4.2c-2.3,0-4.3,1.9-4.3,4.2c-0.4,0.4-2,1.9-1.1,4.3C14.4,21.7,15,22.3,15.6,22.5z M23.8,24.6l0.4,2.5l-9.9,0
	l0.4-2.6c0.1-0.9,0.7-1.6,1.5-1.9c0.2-0.1,0.5-0.1,0.7-0.2l1,2.1c0,0.1,0.1,0.1,0.2,0.1c0,0,0,0,0,0c0.1,0,0.1,0,0.2-0.1l0.5-0.5
	l0.3,0.2c0,0,0.1,0,0.1,0c0.1,0,0.1,0,0.1-0.1l0.3-0.2l0.5,0.5c0,0.1,0.1,0.1,0.2,0.1c0,0,0,0,0,0c0.1,0,0.1-0.1,0.2-0.1l1-2.1
	c0.2,0.1,0.5,0.1,0.7,0.2C23.1,22.9,23.7,23.7,23.8,24.6z M22.3,16.5c0,0.1,0,0.2,0,0.3c0,0.3,0,0.6-0.1,0.9l-0.9,0.1
	c-0.1-0.4-0.5-0.7-1-0.7c-0.5,0-0.9,0.3-1,0.8h-0.1h-0.1c-0.1-0.4-0.5-0.8-1-0.8c-0.5,0-0.9,0.3-1,0.7l-0.9-0.1
	c0-0.2-0.1-0.5-0.1-0.7c0.3-0.2,0.9-0.5,1.1-1C18.2,16.2,21,17,22.3,16.5z M21,18.1c0,0.3-0.2,0.5-0.5,0.5c-0.3,0-0.5-0.2-0.5-0.5
	c0-0.3,0.2-0.5,0.5-0.5C20.7,17.5,21,17.8,21,18.1z M18.8,18.1c0,0.3-0.2,0.5-0.5,0.5c-0.3,0-0.5-0.2-0.5-0.5c0-0.3,0.2-0.5,0.5-0.5
	C18.5,17.5,18.8,17.8,18.8,18.1z M17.2,18.3c0.1,0.5,0.5,0.8,1,0.8c0.5,0,0.9-0.3,1-0.8h0.1h0.1c0.1,0.4,0.5,0.8,1,0.8
	c0.5,0,0.9-0.3,1-0.8l0.7-0.1c-0.4,1.6-1.5,3-2.8,3c0,0,0,0,0,0c-0.5,0-0.9-0.2-1.3-0.5c0,0,0,0,0,0c-0.3-0.2-0.5-0.5-0.7-0.8
	c-0.3-0.5-0.6-1.1-0.7-1.6L17.2,18.3z M19.3,23.6l0.1,0.1l-0.1,0.1l-0.1-0.1L19.3,23.6z M19.6,23.2l1.2-1.2l0.3,0.3l-0.8,1.8
	L19.6,23.2z M19.3,21.7C19.3,21.7,19.3,21.7,19.3,21.7c0.5,0,0.9-0.1,1.3-0.4l0,0.2l-1.3,1.3L18,21.6l0-0.3
	C18.4,21.6,18.9,21.7,19.3,21.7z M17.8,22l1.2,1.2l-0.7,0.8l-0.9-1.8L17.8,22z M15.3,16.3c0.1,0,0.1-0.1,0.1-0.2
	c0-2.1,1.7-3.9,3.9-3.9c2.1,0,3.9,1.7,3.9,3.9c0,0.1,0,0.1,0.1,0.2c0.1,0.1,1.9,1.4,1,3.8c-0.9,2.3-2.2,2-2.2,2c0,0,0,0,0,0
	c-0.2,0-0.3-0.1-0.5-0.1l-0.5-0.4l0-0.6c0.8-0.7,1.4-1.8,1.6-3c0,0,0,0,0-0.1c0.1-0.4,0.1-0.8,0.1-1.1c0-0.3,0-0.6-0.1-0.8
	c0-0.1-0.1-0.2-0.3-0.2c-0.1,0-0.2,0.1-0.2,0.2c-0.9,0.6-3.9-0.2-5.1-0.6c-0.1,0-0.2,0-0.2,0c-0.1,0-0.1,0.1-0.1,0.2
	c0,0.4-0.7,0.9-1,1c0,0,0,0,0,0c0,0,0,0,0,0c0,0,0,0,0,0c0,0,0,0,0,0c0,0,0,0,0,0c0,0,0,0,0,0c0,0,0,0,0,0c0,0,0,0,0,0c0,0,0,0,0,0
	c0,0,0,0,0,0c0,0,0,0,0,0c0,0,0,0,0,0c0,0,0,0,0,0c0,0,0,0,0,0c0,0.4,0,0.7,0.1,1.1c0,0,0,0.1,0,0.1c0.2,0.7,0.5,1.5,0.9,2.1
	c0.2,0.4,0.5,0.6,0.8,0.9l0,0.6L17,22c-0.2,0-0.3,0.1-0.5,0.1c0,0,0,0,0,0c0,0-1.3,0.3-2.2-2C13.4,17.8,15.3,16.4,15.3,16.3z"/>
</svg>
