<?xml version="1.0" encoding="utf-8"?>
<!-- Generator: Adobe Illustrator 21.0.0, SVG Export Plug-In . SVG Version: 6.00 Build 0)  -->
<svg version="1.1" id="Layer_1" xmlns="http://www.w3.org/2000/svg" xmlns:xlink="http://www.w3.org/1999/xlink" x="0px" y="0px"
	 viewBox="0 0 39 39" style="enable-background:new 0 0 39 39;" xml:space="preserve">
<style type="text/css">
	.st0{fill:none;stroke:#003DA6;stroke-miterlimit:10;}
	.st1{fill:#003DA6;}
</style>
<circle class="st0" cx="19.3" cy="19.5" r="16"/>
<path class="st1" d="M28.8,20.5h-3.2v-5.9c0-0.2-0.2-0.4-0.4-0.4h-1.9v-1.8c0-0.2-0.2-0.4-0.4-0.4h-2.3c-0.2,0-0.4,0.2-0.4,0.4v0
	h-1.9l-2.1-0.7c-0.1,0-0.2,0-0.3,0c-0.1,0-0.2,0.1-0.2,0.2l-2.8,8c-0.1,0.2,0,0.4,0.2,0.5H9.7c-0.2,0-0.4,0.2-0.4,0.4v1.7
	c0,0.2,0.2,0.4,0.4,0.4h1.5v2.3c0,0.2,0.2,0.4,0.4,0.4h1.7c0.2,0,0.4-0.2,0.4-0.4V23h11.2v2.3c0,0.2,0.2,0.4,0.4,0.4H27
	c0.2,0,0.4-0.2,0.4-0.4V23h1.5c0.2,0,0.4-0.2,0.4-0.4v-1.7C29.3,20.7,29.1,20.5,28.8,20.5z M24.8,15v5.5h-1.5V15H24.8z M21,12.8h1.5
	v1.8v5.9H21V12.8L21,12.8z M18.7,13.3h1.5v7.2h-1.5V13.3z M16.3,12.6l1.4,0.5l-2.5,7.3l-1.4-0.5L16.3,12.6z M17.9,15.3v5.2h-1.8
	L17.9,15.3z M12.8,24.9H12V23h0.9V24.9z M26.5,24.9h-0.9V23h0.9V24.9z M28.4,22.2H27h-1.7h-12h-1.7h-1.5v-0.9h8.2h2.3h2.3h2.3h3.2
	V22.2z"/>
</svg>
